<svg width="64" height="64" viewBox="0 0 64 64" fill="none" xmlns="http://www.w3.org/2000/svg">
<g clip-path="url(#clip0_5_83)">
<path d="M12.8349 52C9.72078 52 7.24693 51.622 5.35516 50.8369C3.46339 50.0518 2.0955 48.8596 1.25148 47.2021C0.378354 45.5447 0 43.4511 0 40.8631C0 38.2752 0.407458 35.1638 1.13506 31.5291C1.86266 27.8943 2.70668 24.7539 3.72533 22.166C4.71487 19.578 5.96635 17.4553 7.47976 15.827C8.99318 14.1986 10.8558 13.0064 13.0969 12.2213C15.3088 11.4362 18.0155 11.0582 21.246 11.0582C22.4975 11.0582 23.8072 11.1163 25.1751 11.2617C26.543 11.4071 27.8818 11.5816 29.1623 11.8142C30.4429 12.0468 31.5489 12.2794 32.4802 12.5121L30.8213 19.7234C30.0646 19.6071 29.1332 19.4908 28.0273 19.3745C26.9213 19.2582 25.7863 19.1419 24.6221 19.0546C23.4579 18.9674 22.352 18.9092 21.3042 18.9092C19.558 18.9092 18.1028 19.1128 16.9386 19.5489C15.7744 19.9851 14.7849 20.683 13.9991 21.6716C13.2133 22.6603 12.5439 23.9397 12.02 25.539C11.4961 27.1383 11.0014 29.1156 10.5066 31.5291C10.0409 33.8844 9.74989 35.8908 9.63347 37.4901C9.51705 39.0894 9.69168 40.3979 10.0991 41.3575C10.5066 42.317 11.2051 43.0149 12.2237 43.4511C13.2133 43.8872 14.6103 44.0908 16.4147 44.0908C17.9573 44.0908 19.6744 44.0036 21.5662 43.8582C23.4288 43.7128 25.0005 43.5674 26.2228 43.4511L24.9713 50.6043C24.04 50.8078 22.905 51.0114 21.5662 51.244C20.2274 51.4766 18.7722 51.6511 17.2588 51.7965C15.7453 51.9418 14.2901 52 12.8931 52H12.8349Z" fill="white"/>
<path d="M42.9869 52C41.3861 52 39.6981 51.9128 37.9227 51.7092C36.1474 51.5057 34.4302 51.273 32.8295 51.0113C31.2288 50.7496 29.8609 50.4879 28.7258 50.2553L30.6758 43.1021C31.84 43.2475 33.237 43.422 34.8377 43.5965C36.4384 43.7709 38.0392 43.9163 39.6399 44.0617C41.2406 44.2071 42.6376 44.2652 43.86 44.2652C45.1697 44.2652 46.2756 44.0908 47.1779 43.7709C48.0801 43.4511 48.7786 42.9567 49.3025 42.2879C49.8263 41.6192 50.1756 40.7759 50.3793 39.7291C50.5539 38.8858 50.4957 38.1879 50.2338 37.6936C49.9719 37.1993 49.3898 36.7631 48.5166 36.4433C47.6435 36.1234 46.3338 35.8035 44.6167 35.4837C42.2884 35.0475 40.3384 34.5532 38.7668 33.9716C37.1951 33.3901 35.9728 32.634 35.0996 31.7326C34.2265 30.8312 33.7026 29.6681 33.4989 28.3014C33.2952 26.9348 33.4116 25.2773 33.7899 23.3291C34.4302 20.1596 35.478 17.6589 36.9914 15.8851C38.4757 14.1113 40.3675 12.8319 42.6667 12.105C44.9368 11.378 47.5271 11 50.4375 11C51.8054 11 53.3188 11.0872 54.9778 11.2326C56.6658 11.378 58.2956 11.5525 59.8964 11.756C61.4971 11.9596 62.865 12.1631 64.0292 12.3957L62.1665 19.6652C61.0314 19.5199 59.6926 19.3745 58.1792 19.2291C56.6658 19.0837 55.1233 18.9674 53.6099 18.8801C52.0965 18.7929 50.7868 18.7348 49.6517 18.7348C48.3711 18.7348 47.2652 18.8511 46.3629 19.1128C45.4607 19.3745 44.7622 19.7525 44.2383 20.305C43.7145 20.8574 43.3943 21.5553 43.2197 22.3986C43.016 23.3582 43.0742 24.1142 43.3943 24.6376C43.7145 25.161 44.2965 25.5972 45.2279 25.9461C46.1592 26.295 47.4689 26.673 49.1569 27.0511C51.4562 27.6035 53.377 28.156 54.9196 28.7376C56.4621 29.3191 57.6553 30.017 58.5285 30.8603C59.4016 31.7035 59.9255 32.7794 60.1001 34.0879C60.2747 35.3965 60.1874 37.083 59.78 39.0894C59.1688 42.2007 58.121 44.7014 56.6367 46.5915C55.1524 48.4816 53.2606 49.8773 50.9905 50.7206C48.7204 51.5638 46.0428 52 43.016 52H42.9869Z" fill="#3872FC"/>
</g>
<defs>
<clipPath id="clip0_5_83">
<rect width="64" height="41" fill="white" transform="translate(0 11)"/>
</clipPath>
</defs>
</svg>
