<?xml version="1.0" encoding="UTF-8"?>
<svg version="1.1" xmlns="http://www.w3.org/2000/svg" width="547" height="547">
<path d="M0 0 C3.24644057 0.01608717 6.49163367 0.00003769 9.73803711 -0.01904297 C48.75736411 -0.05827726 87.80768927 9.03645125 122.81420898 26.39111328 C123.62051758 26.78347168 124.42682617 27.17583008 125.25756836 27.58007812 C148.34516782 38.89159942 169.41713738 53.32780003 188.15405273 70.91845703 C190.30772892 72.92033225 192.49401882 74.82299037 194.75170898 76.70361328 C205.3983399 85.98076055 214.37559426 97.12473281 222.81420898 108.39111328 C223.43392578 109.20950684 223.43392578 109.20950684 224.06616211 110.04443359 C252.07485036 147.21919811 269.56058614 191.36461437 275.81420898 237.39111328 C275.89968491 238.01610718 275.98516083 238.64110107 276.07322693 239.28503418 C276.86835632 245.64249427 277.00837137 251.95003384 277.05249023 258.35205078 C277.06056198 259.49606354 277.06863373 260.64007629 277.07695007 261.8187561 C277.09073381 264.24097204 277.10148129 266.66320693 277.109375 269.08544922 C277.1207795 271.50705868 277.14104266 273.92864539 277.17089844 276.35009766 C277.67250647 317.17370574 268.68219457 356.68336203 250.81420898 393.39111328 C250.19570068 394.66704346 250.19570068 394.66704346 249.56469727 395.96875 C238.26906891 419.00458055 223.84052556 440.03344916 206.28686523 458.73095703 C204.28499001 460.88463322 202.3823319 463.07092312 200.50170898 465.32861328 C191.23167309 475.96708304 180.09859755 484.98998665 168.81420898 493.39111328 C168.17676758 493.8690332 167.53932617 494.34695313 166.88256836 494.83935547 C134.10750812 519.23570796 96.6742335 534.94432919 56.81420898 543.39111328 C55.77184082 543.61702148 54.72947266 543.84292969 53.65551758 544.07568359 C37.02176848 547.50950971 20.42021889 547.77627511 3.50170898 547.82861328 C1.92579987 547.83814529 1.92579987 547.83814529 0.3180542 547.84786987 C-19.27690658 547.92153226 -38.50490427 546.10124188 -57.62329102 541.70361328 C-58.74396973 541.44797607 -59.86464844 541.19233887 -61.01928711 540.92895508 C-100.7033428 531.55421864 -137.58297463 513.08934856 -169.18579102 487.39111328 C-169.98001465 486.75133545 -169.98001465 486.75133545 -170.7902832 486.09863281 C-185.5552806 474.12023153 -199.72572449 460.59236475 -211.18579102 445.39111328 C-212.09751909 444.23014557 -213.01036214 443.07005296 -213.92407227 441.91064453 C-240.31271681 408.04066087 -257.32671529 368.63288216 -265.93579102 326.70361328 C-266.13462891 325.74334229 -266.3334668 324.78307129 -266.53833008 323.79370117 C-269.75507096 307.3279053 -270.56246885 291.00966979 -270.49829102 274.26611328 C-270.4964682 273.2766571 -270.49464539 272.28720093 -270.49276733 271.26776123 C-270.44682636 256.44124556 -269.98676637 241.99194226 -267.18579102 227.39111328 C-267.00886719 226.44268555 -266.83194336 225.49425781 -266.6496582 224.51708984 C-258.00457195 179.23117171 -239.32811797 137.22935656 -210.18579102 101.39111328 C-209.75927246 100.86163086 -209.33275391 100.33214844 -208.89331055 99.78662109 C-196.9020411 85.00576196 -183.36208833 70.91130261 -168.18579102 59.39111328 C-167.21125977 58.61123047 -166.23672852 57.83134766 -165.23266602 57.02783203 C-133.26553557 31.55301053 -95.37810794 14.56934711 -55.62329102 5.64111328 C-54.79933838 5.45436035 -53.97538574 5.26760742 -53.12646484 5.07519531 C-35.48698977 1.34450918 -18.00656824 -0.10562626 0 0 Z " fill="#ED1B2E" transform="translate(270.185791015625,-0.39111328125)"/>
<path d="M0 0 C5.00619949 4.19529182 9.70815221 8.56871152 14.31225586 13.19873047 C15.00578156 13.89211014 15.69930725 14.58548981 16.41384888 15.29988098 C18.6832284 17.56995171 20.94905495 19.8435333 23.21484375 22.1171875 C24.79645764 23.70066839 26.37829389 25.28392721 27.96034241 26.86697388 C32.10696645 31.01740092 36.25057751 35.1708232 40.39355469 39.32489014 C44.62838222 43.5699796 48.8660712 47.8122105 53.10351562 52.0546875 C61.40513655 60.36700662 69.70357522 68.68249489 78 77 C82.97170971 72.83912771 87.61641826 68.50120177 92.15698242 63.87719727 C92.83432938 63.19196487 93.51167633 62.50673248 94.20954895 61.80073547 C95.66791148 60.32528187 97.12521912 58.848785 98.58156395 57.3713398 C101.67736853 54.23329117 104.78265193 51.10469457 107.88738728 47.9754858 C113.65818042 42.15900344 119.42497646 36.33869021 125.17553711 30.50219727 C129.18639566 26.43213275 133.20920098 22.37422674 137.24032021 18.3242321 C138.77389791 16.77888121 140.30292097 15.22899686 141.82732201 13.67459297 C143.9506431 11.51050416 146.08880847 9.36222661 148.23120117 7.21704102 C148.86037445 6.56832031 149.48954773 5.91959961 150.13778687 5.2512207 C151.90861511 3.49684143 151.90861511 3.49684143 155 1 C159.30758792 1.43640857 161.60915982 4.20614895 164.50292969 7.16235352 C165.03996017 7.69894592 165.57699066 8.23553833 166.1302948 8.78839111 C167.90135963 10.56154385 169.66156518 12.34508126 171.421875 14.12890625 C172.64861623 15.36124341 173.87602204 16.59291933 175.10406494 17.82395935 C178.33290748 21.06425082 181.55263934 24.3134506 184.77056885 27.5645752 C188.05644411 30.88115011 191.35083879 34.18923834 194.64453125 37.49804688 C201.10473015 43.9904108 207.5553379 50.49221574 214 57 C212.67289741 59.94209835 211.23210009 62.01614431 208.95016479 64.29034424 C208.32476807 64.9184903 207.69937134 65.54663635 207.05502319 66.19381714 C206.37025909 66.87139069 205.685495 67.54896423 204.97998047 68.24707031 C204.25792419 68.96941864 203.53586792 69.69176697 202.79193115 70.43600464 C200.40506011 72.82148279 198.0111838 75.19979939 195.6171875 77.578125 C193.96051221 79.23107002 192.30427805 80.88445727 190.64846802 82.53826904 C186.28974083 86.88936088 181.92504076 91.23441313 177.55908203 95.57824707 C173.10478495 100.01208371 168.65614582 104.45158909 164.20703125 108.890625 C155.47689145 117.5993166 146.74043306 126.30164008 138 135 C139.32710259 137.94209835 140.76789991 140.01614431 143.04983521 142.29034424 C143.67523193 142.9184903 144.30062866 143.54663635 144.94497681 144.19381714 C145.62974091 144.87139069 146.314505 145.54896423 147.02001953 146.24707031 C148.10310394 147.3305928 148.10310394 147.3305928 149.20806885 148.43600464 C151.59493989 150.82148279 153.9888162 153.19979939 156.3828125 155.578125 C158.03948779 157.23107002 159.69572195 158.88445727 161.35153198 160.53826904 C165.71025917 164.88936088 170.07495924 169.23441313 174.44091797 173.57824707 C178.89521505 178.01208371 183.34385418 182.45158909 187.79296875 186.890625 C196.52310855 195.5993166 205.25956694 204.30164008 214 213 C212.21863094 216.8291161 209.79752195 219.47260147 206.81591797 222.41113281 C206.28893311 222.93840973 205.76194824 223.46568665 205.21899414 224.00894165 C203.48142524 225.74512072 201.73688686 227.474114 199.9921875 229.203125 C198.78391678 230.40766437 197.57608778 231.61264697 196.36868286 232.8180542 C193.19362923 235.98548106 190.01261478 239.14685513 186.83032227 242.30700684 C183.58247924 245.53437089 180.34030867 248.76742228 177.09765625 252 C170.73731018 258.33891303 164.37065247 264.67144624 158 271 C155.05790165 269.67289741 152.98385569 268.23210009 150.70965576 265.95016479 C149.76743668 265.0120697 149.76743668 265.0120697 148.80618286 264.05502319 C148.12860931 263.37025909 147.45103577 262.685495 146.75292969 261.97998047 C146.03058136 261.25792419 145.30823303 260.53586792 144.56399536 259.79193115 C142.17851721 257.40506011 139.80020061 255.0111838 137.421875 252.6171875 C135.76892998 250.96051221 134.11554273 249.30427805 132.46173096 247.64846802 C128.11063912 243.28974083 123.76558687 238.92504076 119.42175293 234.55908203 C114.98791629 230.10478495 110.54841091 225.65614582 106.109375 221.20703125 C97.4006834 212.47689145 88.69835992 203.74043306 80 195 C77.05551881 196.32624387 74.998199 197.75981082 72.73657227 200.05656433 C72.11420685 200.68340622 71.49184143 201.31024811 70.85061646 201.95608521 C70.17932709 202.64242035 69.50803772 203.32875549 68.81640625 204.03588867 C68.10048309 204.75955124 67.38455994 205.48321381 66.64694214 206.22880554 C65.09411548 207.7992782 63.543501 209.37194057 61.99484253 210.94652367 C59.54600698 213.43472691 57.08976098 215.91537899 54.63110352 218.39387512 C47.64206117 225.44102391 40.66279683 232.49773853 33.69824219 239.5690918 C29.43784459 243.89375508 25.16548668 248.20628745 20.88522339 252.51128578 C19.25382388 254.15698802 17.62711958 255.80735802 16.00515747 257.46236229 C13.74252996 259.77045288 11.46509556 262.06288204 9.18359375 264.35229492 C8.51230438 265.04470276 7.84101501 265.7371106 7.14938354 266.45050049 C6.52701813 267.0688829 5.90465271 267.68726532 5.26342773 268.3243866 C4.72660873 268.8684122 4.18978973 269.4124378 3.63670349 269.97294903 C2 271 2 271 -0.04339981 270.80524254 C-3.13420692 269.53321498 -5.20344296 267.18674592 -7.50292969 264.83764648 C-8.03996017 264.30105408 -8.57699066 263.76446167 -9.1302948 263.21160889 C-10.90135963 261.43845615 -12.66156518 259.65491874 -14.421875 257.87109375 C-15.64861623 256.63875659 -16.87602204 255.40708067 -18.10406494 254.17604065 C-21.33290748 250.93574918 -24.55263934 247.6865494 -27.77056885 244.4354248 C-31.05644411 241.11884989 -34.35083879 237.81076166 -37.64453125 234.50195312 C-44.10473015 228.0095892 -50.5553379 221.50778426 -57 215 C-55.67443115 212.06435266 -54.23558973 209.98478761 -51.96362305 207.70965576 C-51.02986343 206.76743668 -51.02986343 206.76743668 -50.07723999 205.80618286 C-49.39561798 205.12860931 -48.71399597 204.45103577 -48.01171875 203.75292969 C-47.29287506 203.03058136 -46.57403137 202.30823303 -45.83340454 201.56399536 C-43.45644334 199.17823259 -41.07224221 196.79985827 -38.6875 194.421875 C-37.0357583 192.7687865 -35.38431362 191.11540116 -33.7331543 189.46173096 C-30.27293904 185.99856682 -26.80913069 182.53904739 -23.34277344 179.08203125 C-18.89021264 174.64088257 -14.44671305 170.19079316 -10.00584412 165.737957 C-6.59865417 162.32355738 -3.18673649 158.91391429 0.22665405 155.50571442 C1.86765569 153.86605083 3.50716227 152.22488961 5.14517212 150.58223724 C7.42923004 148.29312687 9.71955444 146.01048132 12.01171875 143.72949219 C12.69334076 143.04382172 13.37496277 142.35815125 14.07723999 141.65170288 C14.6997464 141.03483612 15.32225281 140.41796936 15.96362305 139.78240967 C16.50488327 139.2419035 17.04614349 138.70139732 17.60380554 138.14451218 C19 137 19 137 21 137 C16.42100371 131.64922795 11.68082069 126.53919057 6.68774414 121.57421875 C5.99421844 120.88054703 5.30069275 120.18687531 4.58615112 119.47218323 C2.32151826 117.20824012 0.05337751 114.94784741 -2.21484375 112.6875 C-3.79689566 111.1073156 -5.37872512 109.52690847 -6.96034241 107.94628906 C-11.10253278 103.80789763 -15.24771857 99.67251946 -19.39355469 95.53778076 C-23.63203643 91.30956981 -27.86765171 87.07848948 -32.10351562 82.84765625 C-40.39955512 74.56230775 -48.69876482 66.28014262 -57 58 C-53.3654842 53.67102753 -49.64224825 49.51876007 -45.63720703 45.52368164 C-45.13889877 45.02522736 -44.64059052 44.52677307 -44.12718201 44.01321411 C-42.50642196 42.39314159 -40.88216719 40.77662388 -39.2578125 39.16015625 C-38.12273594 38.02694801 -36.98788237 36.89351638 -35.85324097 35.75987244 C-32.88649256 32.79691665 -29.91675198 29.83697807 -26.9463501 26.87768555 C-23.9077114 23.84933144 -20.87195091 20.81809501 -17.8359375 17.78710938 C-11.8934174 11.85526911 -5.947729 5.92661739 0 0 Z " fill="#FEFEFE" transform="translate(195,146)"/>
</svg>
