<svg width="64" height="64" viewBox="0 0 64 64" fill="none" xmlns="http://www.w3.org/2000/svg">
<path d="M24.6395 22.9292L27.5951 9H60.7809C62.559 9 64 10.4437 64 12.2245C64 12.4507 63.9761 12.6764 63.9291 12.8977L55.8181 50.9568C55.3951 52.9407 53.6454 54.3586 51.6206 54.3586H38.3789L44.4543 26.0509C44.7533 24.6581 43.8685 23.2862 42.4781 22.9868C42.3003 22.9485 42.1188 22.9292 41.9369 22.9292H24.6395Z" fill="#BF3B68"/>
<path d="M20.9851 25.2955C20.969 25.354 20.9545 25.4129 20.9417 25.4722L18.5367 36.6144C18.2862 37.7748 19.0222 38.9189 20.1807 39.1698C20.3297 39.2021 20.4817 39.2183 20.6342 39.2183H28.2118C29.397 39.2183 30.3577 40.1808 30.3577 41.368C30.3577 41.5193 30.3418 41.6702 30.3102 41.8182L27.629 54.3586H3.219C1.44119 54.3586 7.53611e-09 52.9147 7.53611e-09 51.1342C-1.54542e-05 50.9079 0.023761 50.6822 0.0709374 50.4609L8.18219 12.4017C8.60497 10.4179 10.3545 9 12.3796 9H24.4236L20.9851 25.2955Z" fill="#F84982"/>
</svg>
