<svg width="440" height="64" viewBox="0 0 440 64" fill="none" xmlns="http://www.w3.org/2000/svg">
<g clip-path="url(#clip0_19_114)">
<path d="M24.4156 41.8462L21.2708 64H36.1281L39.2729 41.8462H24.4156Z" fill="#3872FC"/>
<path d="M24.366 24.6154H2.08003L0 39.3846H22.286L24.366 24.6154Z" fill="#3872FC"/>
<path d="M65.0009 0H30.3338L27.2137 22.1538H42.2197L43.2597 14.7692H65.0009C65.5209 14.7692 66.4371 14.8431 66.9324 15.3846C67.3286 15.8277 67.4524 16.64 67.3286 17.6246C66.8333 21.2185 62.9952 24.6154 59.4542 24.6154H44.2006L42.1206 39.3846H59.4542C70.3991 39.3846 80.5021 30.5723 82.0373 19.6923C83.5726 8.81231 75.9458 0 65.0009 0Z" fill="white"/>
<path d="M140.575 16.2462C139.04 15.3846 137.208 14.9662 135.078 14.9662H122.301L117.472 49.1323H122.127L124.009 35.84H132.131C134.236 35.84 136.192 35.397 137.975 34.5354C139.758 33.6739 141.269 32.4431 142.457 30.8923C143.646 29.3416 144.389 27.4954 144.686 25.4031C144.983 23.2616 144.76 21.4154 144.017 19.8646C143.274 18.3139 142.11 17.1077 140.575 16.2462ZM140.006 25.4031C139.832 26.7077 139.362 27.84 138.669 28.8C137.95 29.76 137.059 30.4985 135.969 31.0154C134.88 31.5323 133.691 31.8031 132.404 31.8031H124.579L126.386 19.0031H134.211C135.499 19.0031 136.613 19.2739 137.554 19.7908C138.495 20.3077 139.164 21.0462 139.609 22.0062C140.055 22.9662 140.179 24.0985 140.006 25.4031Z" fill="white"/>
<path d="M170.067 16.2216C168.556 15.3846 166.724 14.9662 164.545 14.9662H151.916L147.088 49.1323H151.743L153.848 34.2646H156.893L166.922 49.1323H172.816L162.564 34.24C164.446 34.1662 166.179 33.7723 167.715 33.0585C169.448 32.2462 170.859 31.1385 171.924 29.6862C173.014 28.2339 173.682 26.56 173.955 24.6154C174.227 22.7446 174.004 21.0954 173.336 19.6431C172.667 18.1908 171.577 17.0585 170.092 16.2216H170.067ZM169.275 24.7139C169.027 26.4616 168.284 27.84 167.046 28.8493C165.808 29.8585 164.198 30.3754 162.168 30.3754H154.392L156.002 19.0031H163.827C165.833 19.0031 167.318 19.5446 168.235 20.6277C169.151 21.7108 169.497 23.0646 169.275 24.7139Z" fill="white"/>
<path d="M209.191 19.5446C207.829 17.9446 206.17 16.6893 204.189 15.8031C202.208 14.917 200.005 14.4739 197.578 14.4739C195.151 14.4739 192.799 14.917 190.57 15.8031C188.342 16.6893 186.336 17.9446 184.553 19.5446C182.745 21.1446 181.26 23.0154 180.096 25.1323C178.932 27.2493 178.164 29.5385 177.818 32C177.471 34.437 177.595 36.7016 178.164 38.8431C178.734 40.9846 179.7 42.8554 181.061 44.48C182.423 46.1046 184.082 47.36 186.063 48.2708C188.044 49.1816 190.273 49.6246 192.7 49.6246C195.126 49.6246 197.429 49.1816 199.658 48.2708C201.886 47.36 203.892 46.1046 205.7 44.5046C207.483 42.9046 208.993 41.0339 210.182 38.8923C211.37 36.7508 212.138 34.4862 212.485 32.0493C212.831 29.5877 212.708 27.2985 212.113 25.157C211.519 23.0154 210.553 21.1446 209.191 19.5446ZM207.656 32C207.285 34.56 206.418 36.8246 205.056 38.8185C203.694 40.8123 201.986 42.3631 199.955 43.4954C197.925 44.6277 195.671 45.1939 193.195 45.1939C191.387 45.1939 189.753 44.8739 188.317 44.2093C186.881 43.5446 185.692 42.6339 184.751 41.477C183.81 40.32 183.141 38.917 182.77 37.2923C182.399 35.6677 182.324 33.8954 182.597 32C182.968 29.44 183.81 27.1754 185.172 25.2062C186.509 23.237 188.218 21.6862 190.223 20.5785C192.254 19.4708 194.483 18.9046 196.934 18.9046C198.791 18.9046 200.426 19.2246 201.862 19.8646C203.298 20.5046 204.487 21.4154 205.427 22.597C206.393 23.7785 207.062 25.157 207.458 26.757C207.854 28.357 207.928 30.1046 207.656 32Z" fill="white"/>
<path d="M224.445 14.9662H221.275L216.447 49.1323H221.077L223.207 34.117H239.649L240.243 29.8831H223.801L225.312 19.2H242.596L243.215 14.9662H225.931H224.445Z" fill="white"/>
<path d="M244.478 49.1323H249.133L253.961 14.9662H249.306L244.478 49.1323Z" fill="white"/>
<path d="M266.739 14.9662H262.083L257.255 49.1323H260.424H261.91H278.847L279.442 44.8985H262.504L266.739 14.9662Z" fill="white"/>
<path d="M292.59 14.9662H289.421L284.592 49.1323H287.762H289.248H307.473L308.067 44.8985H289.842L291.427 33.6739H308.017L308.587 29.637H291.996L293.457 19.2H311.459L312.054 14.9662H294.076H292.59Z" fill="white"/>
<path d="M338.425 15.7046C336.766 14.8184 334.835 14.3754 332.631 14.3754H318.021L313.118 49.1323H320.894L322.677 36.48H329.511C331.715 36.48 333.795 36.0369 335.702 35.1261C337.608 34.2154 339.193 32.9354 340.481 31.2861C341.744 29.6369 342.561 27.6677 342.883 25.4031C343.205 23.1384 342.957 21.1692 342.164 19.52C341.372 17.8707 340.134 16.5908 338.475 15.7046H338.425ZM335.132 25.4031C334.983 26.4861 334.612 27.3969 334.042 28.16C333.473 28.9231 332.755 29.4892 331.913 29.8831C331.071 30.2769 330.155 30.4738 329.214 30.4738H323.519L324.955 20.3815H330.65C331.616 20.3815 332.458 20.5784 333.201 20.9723C333.943 21.3661 334.488 21.9323 334.835 22.6954C335.182 23.4584 335.305 24.3446 335.157 25.4031H335.132Z" fill="#3872FC"/>
<path d="M354.719 14.3754H348.776L343.873 49.1323H349.816H351.648H368.982L369.923 42.4369H352.589L353.679 34.6092H369.279L370.195 28.16H354.595L355.61 21.0215H372.696L373.637 14.3754H356.551H354.719Z" fill="#3872FC"/>
<path d="M385.177 14.3754H379.234L374.331 49.1323H380.274H382.106H399.44L400.381 42.4369H383.047L384.137 34.6092H399.737L400.653 28.16H385.053L386.068 21.0215H403.154L404.095 14.3754H387.009H385.177Z" fill="#3872FC"/>
<path d="M440 14.3754H430.392L415.238 30.0554L417.466 14.3754H409.691L404.788 49.1323H412.564L414.965 32.0246L425.935 49.1323H435.592L423.508 30.9169L440 14.3754Z" fill="#3872FC"/>
</g>
<defs>
<clipPath id="clip0_19_114">
<rect width="440" height="64" fill="white"/>
</clipPath>
</defs>
</svg>
