<svg width="64" height="64" viewBox="0 0 64 64" fill="none" xmlns="http://www.w3.org/2000/svg">
<g clip-path="url(#clip0_5_127)">
<path d="M19.0019 39.6923L16.5544 57H28.1174L30.5649 39.6923H19.0019Z" fill="white"/>
<path d="M18.9633 26.2308H1.61882L0 37.7692H17.3445L18.9633 26.2308Z" fill="white"/>
<path d="M50.5883 7H23.6079L21.1797 24.3077H32.8583L33.6677 18.5385H50.5883C50.993 18.5385 51.706 18.5962 52.0914 19.0192C52.3998 19.3654 52.4962 20 52.3998 20.7692C52.0144 23.5769 49.0273 26.2308 46.2714 26.2308H34.4001L32.7812 37.7692H46.2714C54.7895 37.7692 62.6523 30.8846 63.8472 22.3846C65.042 13.8846 59.1063 7 50.5883 7Z" fill="white"/>
</g>
<defs>
<clipPath id="clip0_5_127">
<rect width="64" height="64" fill="white"/>
</clipPath>
</defs>
</svg>
