<svg width="64" height="64" viewBox="0 0 64 64" fill="none" xmlns="http://www.w3.org/2000/svg">
<g clip-path="url(#clip0_1_40)">
<path d="M31.9439 0C15.1128 0 1.30802 12.96 0 29.4304L17.1838 36.5216C18.6393 35.5296 20.3961 34.9472 22.2908 34.9472C22.4608 34.9472 22.6243 34.9568 22.7942 34.9632L30.4371 23.9168V23.76C30.4371 17.104 35.8551 11.696 42.5235 11.696C49.1886 11.696 54.6098 17.1104 54.6098 23.7664C54.6098 30.4224 49.1854 35.8336 42.5235 35.8336H42.2445L31.354 43.5968C31.354 43.7344 31.3636 43.8784 31.3636 44.0224C31.3636 49.0208 27.3177 53.0784 22.3069 53.0784C17.9404 53.0784 14.2504 49.9488 13.4104 45.8048L1.10605 40.72C4.91469 54.1504 17.2703 64 31.9471 64C49.6502 64 64 49.6736 64 32C64 14.3296 49.647 0 31.9439 0ZM16.1515 46.9344C16.8504 48.3808 18.059 49.5968 19.6588 50.2656C23.1244 51.7056 27.1222 50.064 28.5616 46.6016C29.2669 44.9216 29.2669 43.0816 28.5745 41.4016C27.8852 39.7216 26.5708 38.4128 24.8973 37.7152C23.2302 37.0208 21.4509 37.0496 19.88 37.6352L23.9483 39.3152C26.5034 40.3808 27.7121 43.3152 26.6413 45.8624C25.5833 48.4128 22.6435 49.6224 20.0884 48.56L16.1515 46.9344ZM50.5832 23.7504C50.5832 19.3184 46.9669 15.712 42.5267 15.712C38.08 15.712 34.4734 19.3184 34.4734 23.7504C34.4734 28.192 38.08 31.792 42.5267 31.792C46.9701 31.792 50.58 28.192 50.58 23.7504H50.5832ZM42.5427 17.696C45.8769 17.696 48.5955 20.4 48.5955 23.7376C48.5955 27.0752 45.8801 29.7792 42.5427 29.7792C39.1957 29.7792 36.4899 27.0752 36.4899 23.7376C36.4899 20.4 39.1989 17.696 42.5427 17.696Z" fill="white"/>
</g>
<defs>
<clipPath id="clip0_1_40">
<rect width="64" height="64" fill="white"/>
</clipPath>
</defs>
</svg>
